<svg width="50" height="19" viewBox="0 0 50 19" fill="none" xmlns="http://www.w3.org/2000/svg">
<path d="M9.88965 18.3936C8.21387 18.3936 6.66927 17.9915 5.25586 17.1875C3.84245 16.375 2.72103 15.2747 1.8916 13.8867C1.07064 12.4987 0.660156 10.9837 0.660156 9.3418C0.660156 7.69141 1.07064 6.17643 1.8916 4.79688C2.72103 3.40885 3.84245 2.31283 5.25586 1.50879C6.66927 0.704753 8.21387 0.302734 9.88965 0.302734C11.1676 0.302734 12.416 0.565104 13.6348 1.08984C14.8535 1.60612 15.8988 2.41016 16.7705 3.50195C17.6423 4.58529 18.1966 5.92253 18.4336 7.51367H14.333C14.0452 6.30339 13.4993 5.41471 12.6953 4.84766C11.8913 4.27214 10.918 3.98438 9.77539 3.98438C8.83594 3.98438 7.97689 4.20443 7.19824 4.64453C6.42806 5.07617 5.81445 5.69824 5.35742 6.51074C4.90885 7.32324 4.68457 8.27116 4.68457 9.35449C4.68457 10.4632 4.90885 11.4238 5.35742 12.2363C5.81445 13.0404 6.42806 13.654 7.19824 14.0771C7.97689 14.5003 8.83594 14.7119 9.77539 14.7119C10.9095 14.7119 11.8786 14.4284 12.6826 13.8613C13.4867 13.2858 14.0326 12.3971 14.3203 11.1953H18.4336C18.1966 12.7865 17.6423 14.1237 16.7705 15.207C15.9072 16.2904 14.8662 17.0944 13.6475 17.6191C12.4287 18.1354 11.1761 18.3936 9.88965 18.3936ZM21.8359 14.4199C22.5723 14.4199 23.1562 14.1956 23.5879 13.7471C24.028 13.2985 24.248 12.6807 24.248 11.8936V0.734375H28.2471V12.1348C28.2471 13.3704 27.9678 14.4284 27.4092 15.3086C26.859 16.1888 26.0973 16.8574 25.124 17.3145C24.1507 17.7715 23.0462 18 21.8105 18H18.7891V14.4199H21.8359ZM31.4971 0.734375H35.0391L40.4092 8.16113V8.14844L45.8555 0.734375H49.3594V18H45.3477V7.14551L40.917 13.3535H39.9014L35.5215 7.10742V18H31.4971V0.734375Z" fill="#FF8C33"/>
</svg>
