<svg width="20" height="20" viewBox="0 0 20 20" fill="none" xmlns="http://www.w3.org/2000/svg">
<path d="M19.5537 19.56C20.1487 18.9734 20.1487 18.0222 19.5537 17.4356L10.9344 8.93778C10.3393 8.35113 9.37459 8.35113 8.77956 8.93778C8.18452 9.52443 8.18452 10.4756 8.77955 11.0622L17.3988 19.56C17.9939 20.1467 18.9586 20.1467 19.5537 19.56Z" fill="black"/>
<path d="M8.77955 11.0622C8.18452 10.4756 8.18452 9.52443 8.77956 8.93778L17.3988 0.439987C17.9939 -0.146663 18.9586 -0.146662 19.5537 0.439987C20.1487 1.02664 20.1487 1.97778 19.5537 2.56443L10.9344 11.0622C10.3393 11.6489 9.37459 11.6489 8.77955 11.0622Z" fill="black"/>
<path d="M0.446278 19.56C-0.148759 18.9734 -0.14876 18.0222 0.446278 17.4356L9.06557 8.93778C9.66061 8.35113 10.6254 8.35113 11.2204 8.93778C11.8154 9.52443 11.8154 10.4756 11.2204 11.0622L2.6011 19.56C2.00606 20.1467 1.04132 20.1467 0.446278 19.56Z" fill="black"/>
<path d="M11.2204 11.0622C11.8154 10.4756 11.8154 9.52443 11.2204 8.93778L2.60111 0.439987C2.00607 -0.146663 1.04132 -0.146662 0.446287 0.439987C-0.148751 1.02664 -0.148751 1.97778 0.446286 2.56443L9.06558 11.0622C9.66061 11.6489 10.6254 11.6489 11.2204 11.0622Z" fill="black"/>
</svg>
