<svg width="60" height="60" viewBox="0 0 60 60" fill="none" xmlns="http://www.w3.org/2000/svg">
<path d="M38 40H22" stroke="#23A2E8" stroke-width="4" stroke-linecap="round" stroke-linejoin="round"/>
<path d="M38 32H22" stroke="#23A2E8" stroke-width="4" stroke-linecap="round" stroke-linejoin="round"/>
<path d="M26 24H24H22" stroke="#23A2E8" stroke-width="4" stroke-linecap="round" stroke-linejoin="round"/>
<path d="M26 10H18C16.9391 10 15.9217 10.4214 15.1716 11.1716C14.4214 11.9217 14 12.9391 14 14V46C14 47.0609 14.4214 48.0783 15.1716 48.8284C15.9217 49.5786 16.9391 50 18 50H42C43.0609 50 44.0783 49.5786 44.8284 48.8284C45.5786 48.0783 46 47.0609 46 46V30M32 10L46 24H32V10Z" stroke="#23A2E8" stroke-width="4" stroke-linecap="round" stroke-linejoin="round"/>
</svg>
