<svg width="60" height="60" viewBox="0 0 60 60" fill="none" xmlns="http://www.w3.org/2000/svg">
<path d="M22.6667 22L28 10C29.5913 10 31.1174 10.6321 32.2426 11.7574C33.3679 12.8826 34 14.4087 34 16V24H45.32C45.8998 23.9934 46.4741 24.113 47.0031 24.3504C47.5322 24.5879 48.0032 24.9375 48.3837 25.375C48.7642 25.8126 49.045 26.3276 49.2067 26.8845C49.3683 27.4414 49.407 28.0267 49.32 28.6L46.56 46.6C46.4154 47.5538 45.9309 48.4232 45.1958 49.048C44.4608 49.6728 43.5247 50.0109 42.56 50H20H14C12.9391 50 11.9217 49.5786 11.1716 48.8284C10.4214 48.0783 10 47.0609 10 46V32C10 30.9391 10.4214 29.9217 11.1716 29.1716C11.9217 28.4214 12.9391 28 14 28H20V44" stroke="#23A2E8" stroke-width="4" stroke-linecap="round" stroke-linejoin="round"/>
</svg>
