<svg width="60" height="60" viewBox="0 0 60 60" fill="none" xmlns="http://www.w3.org/2000/svg">
<path d="M19.0625 36C23.4808 36 27.0625 32.4183 27.0625 28C27.0625 23.5817 23.4808 20 19.0625 20C14.6442 20 11.0625 23.5817 11.0625 28C11.0625 32.4183 14.6442 36 19.0625 36Z" stroke="#23A2E8" stroke-width="4" stroke-linecap="round" stroke-linejoin="round"/>
<path d="M38.3958 19.5556H54.3958C55.1031 19.5556 55.7814 19.3214 56.2815 18.9047C56.7815 18.4879 57.0625 17.9227 57.0625 17.3333V6.22222C57.0625 5.63285 56.7815 5.06762 56.2815 4.65087C55.7814 4.23413 55.1031 4 54.3958 4H35.7292C35.0219 4 34.3436 4.23413 33.8435 4.65087C33.3435 5.06762 33.0625 5.63285 33.0625 6.22222V24L35.7292 21.7778" stroke="#23A2E8" stroke-width="4" stroke-linecap="round" stroke-linejoin="round"/>
<path d="M28.0639 56.2841C30.8399 55.7844 33.0407 55.0229 34.0639 53.9998C34.2077 52.706 34.0639 50.6665 34.0639 50.6665C34.0639 48.8983 33.2211 47.2027 31.7208 45.9524C26.9828 42.0041 11.145 42.0041 6.40705 45.9524C4.90676 47.2027 4.0639 48.8983 4.0639 50.6665C4.0639 50.6665 3.92015 52.706 4.0639 53.9998C5.08704 55.0229 7.28786 55.7844 10.0639 56.2841" stroke="#23A2E8" stroke-width="4" stroke-linecap="round" stroke-linejoin="round"/>
</svg>
