<svg width="20" height="21" viewBox="0 0 20 21" fill="none" xmlns="http://www.w3.org/2000/svg">
<path d="M14.0419 0.0810547H5.95811C2.67279 0.0810547 0 2.76377 0 6.06127V14.1751C0 17.4726 2.67279 20.1553 5.95811 20.1553H14.0419C17.3272 20.1553 20 17.4726 20 14.1751V6.06127C20 2.76377 17.3272 0.0810547 14.0419 0.0810547ZM17.988 14.1751C17.988 16.3625 16.2213 18.1358 14.0419 18.1358H5.95811C3.77875 18.1358 2.012 16.3625 2.012 14.1751V6.06127C2.012 3.87379 3.77875 2.10052 5.95811 2.10052H14.0419C16.2213 2.10052 17.988 3.87379 17.988 6.06127V14.1751Z" fill="#868C90"/>
<path d="M10.0009 4.87012C7.14861 4.87012 4.82812 7.19899 4.82812 10.0615C4.82812 12.924 7.14861 15.2529 10.0009 15.2529C12.8531 15.2529 15.1736 12.9241 15.1736 10.0615C15.1736 7.19895 12.8531 4.87012 10.0009 4.87012ZM10.0009 13.2337C8.25522 13.2337 6.84013 11.8135 6.84013 10.0615C6.84013 8.3096 8.25526 6.8894 10.0009 6.8894C11.7465 6.8894 13.1616 8.3096 13.1616 10.0615C13.1616 11.8134 11.7465 13.2337 10.0009 13.2337Z" fill="#868C90"/>
<path d="M15.1799 6.2168C15.8645 6.2168 16.4195 5.65978 16.4195 4.97266C16.4195 4.28554 15.8645 3.72852 15.1799 3.72852C14.4954 3.72852 13.9404 4.28554 13.9404 4.97266C13.9404 5.65978 14.4954 6.2168 15.1799 6.2168Z" fill="#868C90"/>
</svg>
