<svg width="20" height="21" viewBox="0 0 20 21" fill="none" xmlns="http://www.w3.org/2000/svg">
<path fill-rule="evenodd" clip-rule="evenodd" d="M20 10.1182C20 15.641 15.5228 20.1182 10 20.1182C4.47715 20.1182 0 15.641 0 10.1182C0 4.59532 4.47715 0.118164 10 0.118164C15.5228 0.118164 20 4.59532 20 10.1182ZM14.2182 6.18408L4.57654 9.90158C3.91571 10.1599 3.92737 10.5257 4.46321 10.6957L6.93154 11.4657L12.6574 7.86075C12.9232 7.68408 13.1699 7.78408 12.9682 7.96158L8.33487 12.1474L8.15737 14.6916C8.41571 14.6916 8.52821 14.5791 8.66154 14.4457L9.86737 13.2841L12.3674 15.1266C12.8232 15.3849 13.149 15.2516 13.2707 14.7032L14.9124 6.96908L14.9115 6.96992C15.0565 6.29325 14.6657 6.02242 14.2182 6.18408Z" fill="#868C90"/>
</svg>
