<svg width="20" height="21" viewBox="0 0 20 21" fill="none" xmlns="http://www.w3.org/2000/svg">
<path d="M18.1908 0.0820312H1.80916C0.81 0.0820312 0 0.894958 0 1.89773V18.3385C0 19.3414 0.81 20.1543 1.80916 20.1543H18.1908C19.19 20.1543 20 19.3414 20 18.3385V1.89773C20 0.894958 19.19 0.0820312 18.1908 0.0820312ZM6.18885 17.4137C6.18885 17.7056 5.95314 17.9421 5.66236 17.9421H3.4212C3.13042 17.9421 2.89471 17.7056 2.89471 17.4137V7.98499C2.89471 7.69315 3.13042 7.45659 3.4212 7.45659H5.66236C5.95314 7.45659 6.18885 7.69315 6.18885 7.98499V17.4137ZM4.54178 6.56779C3.36592 6.56779 2.41267 5.6111 2.41267 4.43099C2.41267 3.25087 3.36592 2.29418 4.54178 2.29418C5.71764 2.29418 6.67089 3.25087 6.67089 4.43099C6.67089 5.6111 5.7177 6.56779 4.54178 6.56779ZM17.901 17.4563C17.901 17.7246 17.6843 17.9421 17.417 17.9421H15.012C14.7447 17.9421 14.528 17.7246 14.528 17.4563V13.0337C14.528 12.3739 14.7208 10.1426 12.81 10.1426C11.3279 10.1426 11.0272 11.6699 10.9669 12.3553V17.4563C10.9669 17.7246 10.7502 17.9421 10.4828 17.9421H8.15681C7.88948 17.9421 7.67272 17.7246 7.67272 17.4563V7.94242C7.67272 7.67413 7.88948 7.45659 8.15681 7.45659H10.4828C10.7501 7.45659 10.9669 7.67413 10.9669 7.94242V8.76502C11.5164 7.93728 12.3332 7.29838 14.0722 7.29838C17.9231 7.29838 17.901 10.9091 17.901 12.893V17.4563Z" fill="#868C90"/>
</svg>
