<svg width="20" height="21" viewBox="0 0 20 21" fill="none" xmlns="http://www.w3.org/2000/svg">
<path d="M9.5111 0.0117029C4.18608 0.266172 -0.0161077 4.71702 4.64182e-05 10.0675C0.00496498 11.6971 0.396955 13.2352 1.08845 14.5943L0.026761 19.7666C-0.0306705 20.0464 0.220755 20.2913 0.497689 20.2255L5.54756 19.0248C6.84495 19.6734 8.30219 20.048 9.84445 20.0716C15.2871 20.1551 19.8254 15.8177 19.995 10.3573C20.1769 4.50402 15.3635 -0.26803 9.5111 0.0117029ZM15.5367 15.5932C14.0578 17.0775 12.0915 17.8949 10 17.8949C8.77539 17.8949 7.60294 17.6192 6.51511 17.0753L5.81186 16.7237L2.71577 17.4599L3.36748 14.2848L3.02101 13.6038C2.45629 12.4939 2.16995 11.2936 2.16995 10.0364C2.16995 7.93728 2.98441 5.96386 4.4633 4.47953C5.92899 3.00852 7.92737 2.17779 10.0002 2.17779C12.0916 2.17784 14.0578 2.99526 15.5367 4.47949C17.0156 5.96376 17.8301 7.93718 17.8301 10.0362C17.8301 12.1166 17.0024 14.1223 15.5367 15.5932Z" fill="#868C90"/>
<path d="M14.8566 12.2068L12.9196 11.6488C12.6649 11.5755 12.3907 11.648 12.2051 11.8377L11.7314 12.3218C11.5317 12.526 11.2286 12.5916 10.9643 12.4843C10.048 12.1122 8.12048 10.3929 7.62824 9.53291C7.48623 9.28483 7.50971 8.97468 7.68408 8.74833L8.09763 8.21158C8.25965 8.00129 8.29384 7.71886 8.18669 7.47576L7.37175 5.62664C7.17655 5.18374 6.61241 5.05482 6.24385 5.36753C5.70324 5.82624 5.0618 6.52331 4.98382 7.29556C4.84634 8.65709 5.42838 10.3734 7.62935 12.4343C10.1721 14.8152 12.2083 15.1297 13.534 14.8075C14.286 14.6248 14.8869 13.8923 15.2662 13.2925C15.5247 12.8836 15.3206 12.3405 14.8566 12.2068Z" fill="#868C90"/>
</svg>
