<svg width="20" height="21" viewBox="0 0 20 21" fill="none" xmlns="http://www.w3.org/2000/svg">
<path d="M17.3049 0.0820312H2.69506C1.20665 0.0820312 0 1.29298 0 2.78681V17.4494C0 18.9432 1.2066 20.1542 2.69506 20.1542H9.90056L9.91284 12.9815H8.05607C7.81477 12.9815 7.61892 12.7857 7.61799 12.5435L7.60909 10.2314C7.60816 9.98795 7.80459 9.79007 8.04721 9.79007H9.90061V7.55603C9.90061 4.96345 11.4783 3.55177 13.7827 3.55177H15.6737C15.9157 3.55177 16.1118 3.74862 16.1118 3.99148V5.94102C16.1118 6.18378 15.9158 6.38058 15.674 6.38072L14.5135 6.38126C13.2603 6.38126 13.0176 6.97893 13.0176 7.85604V9.79011H15.7714C16.0338 9.79011 16.2373 10.0201 16.2064 10.2816L15.9334 12.5936C15.9072 12.8149 15.7203 12.9816 15.4983 12.9816H13.0299L13.0176 20.1543H17.305C18.7934 20.1543 20 18.9433 20 17.4496V2.78681C20 1.29298 18.7934 0.0820312 17.3049 0.0820312Z" fill="#868C90"/>
</svg>
