<svg width="44" height="44" viewBox="0 0 44 44" fill="none" xmlns="http://www.w3.org/2000/svg">
<path d="M29.3333 29.3334C33.3834 29.3334 36.6667 26.0501 36.6667 22C36.6667 17.9499 33.3834 14.6667 29.3333 14.6667C25.2832 14.6667 22 17.9499 22 22C22 26.0501 25.2832 29.3334 29.3333 29.3334Z" fill="#19BCFE"/>
<path fill-rule="evenodd" clip-rule="evenodd" d="M14.6663 44C16.6113 44 18.4765 43.2274 19.8518 41.8521C21.2271 40.4768 21.9997 38.6116 21.9997 36.6667V29.3333H14.6663C12.7214 29.3333 10.8562 30.1059 9.48089 31.4812C8.10562 32.8565 7.33301 34.7217 7.33301 36.6667C7.33301 38.6116 8.10562 40.4768 9.48089 41.8521C10.8562 43.2274 12.7214 44 14.6663 44Z" fill="#09CF83"/>
<path fill-rule="evenodd" clip-rule="evenodd" d="M14.6663 29.3334H21.9997V14.6667H14.6663C12.7214 14.6667 10.8562 15.4393 9.48089 16.8146C8.10562 18.1898 7.33301 20.0551 7.33301 22C7.33301 23.9449 8.10562 25.8102 9.48089 27.1855C10.8562 28.5607 12.7214 29.3334 14.6663 29.3334Z" fill="#A259FF"/>
<path fill-rule="evenodd" clip-rule="evenodd" d="M14.6663 14.6667H21.9997V0H14.6663C12.7214 0 10.8562 0.772617 9.48089 2.14788C8.10562 3.52315 7.33301 5.38841 7.33301 7.33333C7.33301 9.27825 8.10562 11.1435 9.48089 12.5188C10.8562 13.8941 12.7214 14.6667 14.6663 14.6667Z" fill="#F24E1E"/>
<path fill-rule="evenodd" clip-rule="evenodd" d="M29.3333 14.6667H22V0H29.3333C31.2783 0 33.1435 0.772617 34.5188 2.14788C35.894 3.52315 36.6667 5.38841 36.6667 7.33333C36.6667 9.27825 35.894 11.1435 34.5188 12.5188C33.1435 13.8941 31.2783 14.6667 29.3333 14.6667Z" fill="#FF7262"/>
</svg>
