<svg width="40" height="40" viewBox="0 0 40 40" fill="none" xmlns="http://www.w3.org/2000/svg">
<path d="M36.0938 0H3.90625C1.74889 0 0 1.74889 0 3.90625V36.0938C0 38.2511 1.74889 40 3.90625 40H36.0938C38.2511 40 40 38.2511 40 36.0938V3.90625C40 1.74889 38.2511 0 36.0938 0Z" fill="url(#paint0_linear)"/>
<path d="M32.9251 5.19999H24.4751C23.4396 5.19999 22.6001 6.03946 22.6001 7.07499V20.825C22.6001 21.8605 23.4396 22.7 24.4751 22.7H32.9251C33.9606 22.7 34.8001 21.8605 34.8001 20.825V7.07499C34.8001 6.03946 33.9606 5.19999 32.9251 5.19999Z" fill="white"/>
<path d="M15.5247 5.19999H7.07471C6.03917 5.19999 5.19971 6.03946 5.19971 7.07499V30.825C5.19971 31.8605 6.03917 32.7 7.07471 32.7H15.5247C16.5602 32.7 17.3997 31.8605 17.3997 30.825V7.07499C17.3997 6.03946 16.5602 5.19999 15.5247 5.19999Z" fill="white"/>
<defs>
<linearGradient id="paint0_linear" x1="20" y1="0" x2="20" y2="40" gradientUnits="userSpaceOnUse">
<stop stop-color="#0091E6"/>
<stop offset="1" stop-color="#0079BF"/>
</linearGradient>
</defs>
</svg>
