<svg width="31" height="34" viewBox="0 0 31 34" fill="none" xmlns="http://www.w3.org/2000/svg">
<g clip-path="url(#clip0)">
<path d="M30.6479 29.6821C30.651 30.2797 30.5271 30.8711 30.2843 31.4171C30.0415 31.9632 29.6855 32.4514 29.2398 32.8494C28.794 33.2474 28.2688 33.5462 27.6988 33.7258C27.1289 33.9055 26.5273 33.962 25.9339 33.8915C23.7737 33.5719 22.1908 31.6922 22.2435 29.5091V4.41102C22.1913 2.22568 23.7781 0.344909 25.9411 0.0287328C26.5339 -0.0406745 27.1348 0.0165813 27.7038 0.196713C28.2729 0.376845 28.7973 0.675748 29.2422 1.07365C29.6871 1.47155 30.0425 1.95939 30.2849 2.50489C30.5272 3.05039 30.6509 3.64113 30.6479 4.23803V29.6821Z" fill="#F9AB00"/>
<path d="M4.20223 25.5231C6.52309 25.5231 8.40447 27.4046 8.40447 29.7253C8.40447 32.0462 6.52309 33.9276 4.20223 33.9276C1.88137 33.9276 0 32.0462 0 29.7255C0 27.4046 1.88137 25.5231 4.20223 25.5231ZM15.2592 12.7866C12.9274 12.9145 11.1181 14.8705 11.1724 17.2052V28.4928C11.1724 31.5562 12.5203 33.4159 14.4951 33.8123C15.1074 33.9364 15.7396 33.9227 16.3459 33.7721C16.9522 33.6215 17.5174 33.3379 18.0005 32.9418C18.4836 32.5456 18.8724 32.047 19.1388 31.4819C19.4053 30.9168 19.5426 30.2995 19.5408 29.6748V17.0107C19.5418 16.4508 19.4313 15.8964 19.2158 15.3796C19.0003 14.8629 18.684 14.3943 18.2854 14.0011C17.8869 13.608 17.414 13.2981 16.8944 13.0896C16.3749 12.8811 15.819 12.7781 15.2592 12.7868V12.7866Z" fill="#E37400"/>
</g>
<defs>
<clipPath id="clip0">
<rect width="30.6479" height="34" fill="white"/>
</clipPath>
</defs>
</svg>
