<svg width="25" height="15" viewBox="0 0 25 15" fill="none" xmlns="http://www.w3.org/2000/svg">
<path d="M11.6393 14.5613C11.1026 13.9763 11.1026 13.0279 11.6393 12.4429L22.6537 0.438731C23.1905 -0.146244 24.0607 -0.146244 24.5974 0.438731C25.1342 1.02371 25.1342 1.97214 24.5974 2.55711L13.583 14.5613C13.0463 15.1462 12.176 15.1462 11.6393 14.5613Z" fill="black"/>
<path d="M13.3607 14.5613C13.8974 13.9763 13.8974 13.0279 13.3607 12.4429L2.34628 0.438731C1.80953 -0.146244 0.939301 -0.146244 0.402558 0.438731C-0.134186 1.02371 -0.134186 1.97214 0.402558 2.55711L11.417 14.5613C11.9537 15.1462 12.824 15.1462 13.3607 14.5613Z" fill="black"/>
</svg>
