<svg width="24" height="24" viewBox="0 0 24 24" fill="none" xmlns="http://www.w3.org/2000/svg">
<path d="M18.08 19.9401C16.2881 21.3124 14.0847 22.0381 11.8281 21.9993C9.57144 21.9605 7.39429 21.1594 5.65064 19.7264C3.90699 18.2933 2.69938 16.3126 2.22418 14.1062C1.74898 11.8998 2.03413 9.5976 3.03327 7.57383C4.03241 5.55007 5.68677 3.9238 7.72736 2.95948C9.76794 1.99515 12.0747 1.74948 14.2726 2.26241C16.4706 2.77534 18.4303 4.0167 19.8333 5.78464C21.5151 7.90399 22 10.3713 22 13.0001C22 13.7958 21.6839 14.5588 21.1213 15.1214C20.5587 15.684 19.7957 16.0001 19 16.0001C18.2044 16.0001 17.4413 15.684 16.8787 15.1214C16.3161 14.5588 16 13.7958 16 13.0001V12.0001C16 9.79097 14.2092 8.00011 12 8.00011C9.79087 8.00011 8.00001 9.79097 8.00001 12.0001C8.00001 14.2093 9.79087 16.0001 12 16.0001C12.5305 16.0001 13.0368 15.8969 13.5 15.7094" stroke="#23A2E8" stroke-width="1.5" stroke-linecap="round" stroke-linejoin="round"/>
</svg>
