<svg width="50" height="50" viewBox="0 0 50 50" fill="none" xmlns="http://www.w3.org/2000/svg">
<path d="M18.125 39.7917C20.5794 41.0314 23.2919 41.6738 26.0417 41.6667C29.3297 41.6654 32.5524 40.7487 35.3489 39.0193C38.1453 37.2899 40.4051 34.8161 41.875 31.875C43.1147 29.4206 43.7572 26.7081 43.75 23.9583V22.9167C43.5104 18.5743 41.6776 14.4729 38.6024 11.3977C35.5272 8.32246 31.4257 6.48961 27.0833 6.25004H26.0417C23.2919 6.24287 20.5794 6.88532 18.125 8.12504C15.1839 9.59497 12.7101 11.8547 10.9807 14.6512C9.25127 17.4476 8.33461 20.6703 8.33333 23.9583C8.32616 26.7081 8.96861 29.4206 10.2083 31.875L6.25 43.75L12.1875 41.7708" stroke="#343A3F" stroke-width="3" stroke-linecap="round" stroke-linejoin="round"/>
</svg>
