<svg width="35" height="19" viewBox="0 0 35 19" fill="none" xmlns="http://www.w3.org/2000/svg">
<path d="M8.08984 18.3936C6.65951 18.3936 5.36458 18.1058 4.20508 17.5303C3.05404 16.9548 2.14844 16.1338 1.48828 15.0674C0.828125 14.001 0.498047 12.7568 0.498047 11.335V0.734375H4.50977V11.043C4.50977 11.7539 4.64941 12.3887 4.92871 12.9473C5.20801 13.5059 5.61426 13.946 6.14746 14.2676C6.68913 14.5892 7.33659 14.75 8.08984 14.75C8.82617 14.75 9.46094 14.5892 9.99414 14.2676C10.5358 13.946 10.9463 13.5059 11.2256 12.9473C11.5049 12.3887 11.6445 11.7539 11.6445 11.043V0.734375H15.6689V11.335C15.6689 12.6976 15.3558 13.9163 14.7295 14.9912C14.1032 16.0576 13.2145 16.8913 12.0635 17.4922C10.9209 18.0931 9.59635 18.3936 8.08984 18.3936ZM22.9814 8.93555L17.2939 0.734375H22.0166L25.4951 6.12988L28.9736 0.734375H33.6963L28.0088 8.93555L34.3311 18H29.5957L25.4951 11.7031L21.4072 18H16.6719L22.9814 8.93555Z" fill="#000AFE"/>
</svg>
