<svg width="42" height="42" viewBox="0 0 42 42" fill="none" xmlns="http://www.w3.org/2000/svg">
<path d="M25.6999 20.1469L11.1719 17.5875V36.4993C11.172 36.7048 11.2127 36.9082 11.2915 37.0979C11.3702 37.2877 11.4856 37.46 11.631 37.6052C11.7764 37.7503 11.949 37.8654 12.1389 37.9439C12.3288 38.0224 12.5322 38.0627 12.7377 38.0625H37.8064C38.0121 38.063 38.2159 38.023 38.406 37.9447C38.5962 37.8663 38.7691 37.7513 38.9148 37.6061C39.0605 37.4609 39.1761 37.2884 39.255 37.0985C39.334 36.9086 39.3747 36.705 39.3749 36.4993V29.5312L25.6999 20.1469Z" fill="#185C37"/>
<path d="M25.6999 3.9375H12.7377C12.5322 3.93733 12.3288 3.97762 12.1389 4.05609C11.949 4.13455 11.7764 4.24965 11.631 4.3948C11.4856 4.53996 11.3702 4.71233 11.2915 4.90208C11.2127 5.09183 11.172 5.29524 11.1719 5.50069V12.4688L25.6999 21L33.3925 23.5594L39.3749 21V12.4688L25.6999 3.9375Z" fill="#21A366"/>
<path d="M11.1719 12.4688H25.6999V21H11.1719V12.4688Z" fill="#107C41"/>
<path opacity="0.1" d="M21.5695 10.7625H11.1719V32.0906H21.5695C21.9838 32.0886 22.3806 31.9234 22.674 31.6308C22.9673 31.3382 23.1335 30.9418 23.1366 30.5275V12.3257C23.1335 11.9114 22.9673 11.515 22.674 11.2224C22.3806 10.9298 21.9838 10.7646 21.5695 10.7625Z" fill="black"/>
<path opacity="0.2" d="M20.7151 11.6156H11.1719V32.9438H20.7151C21.1294 32.9417 21.5262 32.7765 21.8195 32.4839C22.1129 32.1913 22.2791 31.7949 22.2822 31.3806V13.1788C22.2791 12.7645 22.1129 12.3681 21.8195 12.0755C21.5262 11.7829 21.1294 11.6177 20.7151 11.6156Z" fill="black"/>
<path opacity="0.2" d="M20.7151 11.6156H11.1719V31.2375H20.7151C21.1294 31.2354 21.5262 31.0702 21.8195 30.7776C22.1129 30.485 22.2791 30.0886 22.2822 29.6743V13.1788C22.2791 12.7645 22.1129 12.3681 21.8195 12.0755C21.5262 11.7829 21.1294 11.6177 20.7151 11.6156Z" fill="black"/>
<path opacity="0.2" d="M19.8606 11.6156H11.1719V31.2375H19.8606C20.2749 31.2354 20.6718 31.0702 20.9651 30.7776C21.2584 30.485 21.4247 30.0886 21.4278 29.6743V13.1788C21.4247 12.7645 21.2584 12.3681 20.9651 12.0755C20.6718 11.7829 20.2749 11.6177 19.8606 11.6156Z" fill="black"/>
<path d="M4.19212 11.6156H19.8608C20.2758 11.6153 20.674 11.7797 20.9679 12.0729C21.2617 12.366 21.4272 12.7638 21.4279 13.1788V28.8212C21.4272 29.2362 21.2617 29.634 20.9679 29.9272C20.674 30.2203 20.2758 30.3847 19.8608 30.3844H4.19212C3.98656 30.3847 3.78295 30.3446 3.59291 30.2662C3.40288 30.1878 3.23016 30.0727 3.08462 29.9275C2.93909 29.7824 2.82358 29.6099 2.74472 29.4201C2.66585 29.2303 2.62517 29.0268 2.625 28.8212V13.1788C2.62517 12.9733 2.66585 12.7697 2.74472 12.5799C2.82358 12.3901 2.93909 12.2176 3.08462 12.0725C3.23016 11.9273 3.40288 11.8122 3.59291 11.7338C3.78295 11.6555 3.98656 11.6153 4.19212 11.6156Z" fill="url(#paint0_linear)"/>
<path d="M7.48145 26.0833L10.7771 20.9856L7.75838 15.9167H10.1826L11.8298 19.1625C11.982 19.4696 12.0923 19.698 12.1421 19.8503H12.1644C12.2721 19.6035 12.3863 19.3659 12.5057 19.1336L14.2671 15.9219H16.4983L13.4021 20.9619L16.5771 26.0873H14.2028L12.2996 22.5291C12.2113 22.3761 12.1362 22.2158 12.0752 22.05H12.0437C11.9882 22.2115 11.9142 22.3661 11.8232 22.5107L9.86363 26.0833H7.48145Z" fill="white"/>
<path d="M37.808 3.9375H25.7002V12.4688H39.3751V5.50069C39.375 5.29513 39.3343 5.09161 39.2554 4.90178C39.1765 4.71194 39.061 4.53951 38.9155 4.39434C38.77 4.24917 38.5972 4.1341 38.4072 4.05571C38.2172 3.97733 38.0136 3.93716 37.808 3.9375Z" fill="#33C481"/>
<path d="M25.7002 21H39.3751V29.5312H25.7002V21Z" fill="#107C41"/>
<defs>
<linearGradient id="paint0_linear" x1="5.89837" y1="10.3871" x2="18.1545" y2="31.6129" gradientUnits="userSpaceOnUse">
<stop stop-color="#18884F"/>
<stop offset="0.5" stop-color="#117E43"/>
<stop offset="1" stop-color="#0B6631"/>
</linearGradient>
</defs>
</svg>
